<svg xmlns="http://www.w3.org/2000/svg" viewBox="0 0 1192 104.81"><defs><style>.cls-1{fill:none;stroke:#fff;stroke-miterlimit:10;stroke-width:1.5px;}.cls-2{fill:#fff;}</style></defs><g id="Layer_2" data-name="Layer 2"><g id="Layer_1-2" data-name="Layer 1"><g id="Layer_2-2" data-name="Layer 2"><g id="Layer_1-2-2" data-name="Layer 1-2"><path class="cls-1" d="M52.4,104.06V.75"/><path class="cls-1" d="M24.9,96.12c-4.59-2.88-3.61-13.88,2.62-28.85A165,165,0,0,1,55,23.54C65.84,11.46,75.3,5.8,79.91,8.69"/><path class="cls-1" d="M4,70.6C1,62.38,7.32,51.32,20.75,41.6A103,103,0,0,1,69.11,23.42C85.62,21.9,97.68,26,100.81,34.26"/><path class="cls-1" d="M4,34.21c4.76-12.7,30.29-14.88,57-4.85s44.51,28.49,39.74,41.24"/><path class="cls-1" d="M24.9,8.69c7-4.48,25.16,11.49,40.36,35.63S87,91.66,79.91,96.12"/><path class="cls-1" d="M81.17,95.33a52.86,52.86,0,0,1-57.53,0"/><path class="cls-1" d="M101.92,67.08c-5.87,19.58-26.18,33.26-49.52,33.26S8.7,86.68,2.89,67.08"/><path class="cls-1" d="M101.92,37.73c5.32,17.91-2.78,36.82-20.33,47.38a57.69,57.69,0,0,1-58.37,0C5.67,74.55-2.43,55.64,2.89,37.73"/><path class="cls-1" d="M81.17,9.48c15.88,10.64,22.2,28.88,15.69,45.35S72.5,82.34,52.4,82.34s-38-11-44.45-27.51S7.76,20.12,23.64,9.48"/><ellipse class="cls-1" cx="52.4" cy="35.49" rx="39.03" ry="33.81"/><ellipse class="cls-1" cx="52.4" cy="30.67" rx="27.93" ry="24.18"/><ellipse class="cls-1" cx="52.4" cy="27.62" rx="14.56" ry="12.61"/><circle class="cls-1" cx="52.4" cy="52.4" r="51.65"/></g></g><path class="cls-2" d="M123.57,76.62V28.15h19.08a16.28,16.28,0,0,1,6.57,1.23,13.85,13.85,0,0,1,4.68,3.23,13.69,13.69,0,0,1,2.81,4.58,15,15,0,0,1,.95,5.22V44a15.73,15.73,0,0,1-.95,5.36,14.19,14.19,0,0,1-2.81,4.71,13.78,13.78,0,0,1-4.67,3.34,16,16,0,0,1-6.58,1.26h-9.13V76.62Zm18.2-27.45a6.17,6.17,0,0,0,4.37-1.49,5,5,0,0,0,1.57-3.84V43a5,5,0,0,0-1.57-3.84,6.17,6.17,0,0,0-4.37-1.49h-8.25V49.17Z"/><path class="cls-2" d="M173.28,90.18V81h15.35c.66,0,1.33-.18,1.33-1.53V71.73h-.38c-1.62,3.87-5,5.84-10,5.84a13.83,13.83,0,0,1-4.86-.85,10.69,10.69,0,0,1-4-2.63,12.21,12.21,0,0,1-2.65-4.42,18.18,18.18,0,0,1-1-6.17V42h9.55V61.74A8,8,0,0,0,178.29,67,5.78,5.78,0,0,0,183,68.84c2.43,0,4.15-.75,5.26-2.27a10.87,10.87,0,0,0,1.7-6.46V42h9.54V84.39a5.73,5.73,0,0,1-1.6,4.15,5.52,5.52,0,0,1-4.12,1.64Z"/><path class="cls-2" d="M225.11,76.62A5.54,5.54,0,0,1,221,75a5.7,5.7,0,0,1-1.6-4.14V51.12h-10V42h10V28.15h9.55V42h12.13v9.14H228.94V66c0,1.35.67,1.53,1.33,1.53h9.58v9.14Z"/><path class="cls-2" d="M276.49,76.62V57a8.12,8.12,0,0,0-1.61-5.34,5.63,5.63,0,0,0-4.6-1.89A6,6,0,0,0,265,52.1a10.8,10.8,0,0,0-1.77,6.52v18h-9.54V28.15h9.54V47.41h.39a10.74,10.74,0,0,1,3.85-4.63A11.47,11.47,0,0,1,273.94,41a13.24,13.24,0,0,1,4.79.85,10.62,10.62,0,0,1,3.84,2.56,11.78,11.78,0,0,1,2.56,4.35A19.09,19.09,0,0,1,286,55V76.62Z"/><path class="cls-2" d="M312.73,77.57A19.59,19.59,0,0,1,306,76.38a17.45,17.45,0,0,1-5.76-3.45,16.32,16.32,0,0,1-4-5.6,18.76,18.76,0,0,1-1.47-7.62v-.82a18.67,18.67,0,0,1,1.47-7.56,16.56,16.56,0,0,1,4-5.62,17.14,17.14,0,0,1,5.76-3.5,20.07,20.07,0,0,1,13.56,0,17.28,17.28,0,0,1,5.77,3.5,16.67,16.67,0,0,1,4,5.62,18.67,18.67,0,0,1,1.47,7.56v.82a18.8,18.8,0,0,1-1.47,7.62,16.19,16.19,0,0,1-4,5.6,17.45,17.45,0,0,1-5.76,3.45A19.59,19.59,0,0,1,312.73,77.57Zm0-27.4a9.13,9.13,0,0,0-3.28.58,7.86,7.86,0,0,0-2.68,1.66A7.77,7.77,0,0,0,305,55.06a8.93,8.93,0,0,0-.67,3.56V60a8.87,8.87,0,0,0,.67,3.56,7.74,7.74,0,0,0,4.5,4.31,9.56,9.56,0,0,0,6.56,0,7.74,7.74,0,0,0,4.5-4.31,8.87,8.87,0,0,0,.67-3.56V58.62a9,9,0,0,0-.67-3.57,7.76,7.76,0,0,0-4.5-4.3A9.13,9.13,0,0,0,312.73,50.17Z"/><path class="cls-2" d="M362.75,76.62V57a8.12,8.12,0,0,0-1.61-5.34,5.61,5.61,0,0,0-4.6-1.89,6,6,0,0,0-5.26,2.34,10.87,10.87,0,0,0-1.77,6.52v18H340V42h9.54v5h.39a9.49,9.49,0,0,1,3.8-4.34A12,12,0,0,1,360,41a13.78,13.78,0,0,1,4.75.81,10.71,10.71,0,0,1,3.94,2.53,11.67,11.67,0,0,1,2.66,4.31,18,18,0,0,1,.95,6.14v21.8Z"/><path class="cls-2" d="M438.46,76.62a18.29,18.29,0,0,1-6.2-1,13,13,0,0,1-4.58-2.72,11.31,11.31,0,0,1-2.8-4.11,13.61,13.61,0,0,1-1-5.1v-.82A9.8,9.8,0,0,1,426.33,56a12.29,12.29,0,0,1,5.6-3.46v-.47a12.32,12.32,0,0,1-5.6-3.43,9.65,9.65,0,0,1-2.41-6.85V41a13.57,13.57,0,0,1,1-5.1,11.15,11.15,0,0,1,2.8-4.08,13.2,13.2,0,0,1,4.58-2.68,18.38,18.38,0,0,1,6.2-1h7.89v9.13h-7A7,7,0,0,0,435,38.51a4.29,4.29,0,0,0-1.56,3.7v.41A4.28,4.28,0,0,0,435,46.35a7.17,7.17,0,0,0,4.31,1.19h7V42h9.55v5.56h6.24v9.55h-6.24V76.62Zm.88-19.94A6.64,6.64,0,0,0,435.05,58a4.67,4.67,0,0,0-1.58,3.89v.4a4.67,4.67,0,0,0,1.58,3.89,6.64,6.64,0,0,0,4.29,1.31h7V56.68Z"/><path class="cls-2" d="M528.73,77.57c-5.59,0-10-1.72-13.22-5.11s-4.78-8.36-4.78-14.79V47.09c0-6.25,1.61-11.17,4.77-14.64s7.63-5.25,13.23-5.25,10,1.76,13.22,5.25,4.77,8.39,4.77,14.64V57.67c0,6.43-1.61,11.41-4.78,14.79S534.31,77.57,528.73,77.57Zm0-41.24a7.94,7.94,0,0,0-3.71.8,7,7,0,0,0-2.47,2.11,9.46,9.46,0,0,0-1.41,3.22,17.79,17.79,0,0,0-.46,4.09V58.21a20.5,20.5,0,0,0,.4,4.24,8.12,8.12,0,0,0,1.34,3.2,6.28,6.28,0,0,0,2.45,2,10.54,10.54,0,0,0,7.71,0,6.28,6.28,0,0,0,2.45-2,8.12,8.12,0,0,0,1.34-3.2,20.5,20.5,0,0,0,.4-4.24V46.55a17.32,17.32,0,0,0-.46-4.09,9.46,9.46,0,0,0-1.41-3.22,7,7,0,0,0-2.47-2.11A7.93,7.93,0,0,0,528.73,36.33Z"/><path class="cls-2" d="M554.2,90.18V42h9.54v4.88h.42a10.47,10.47,0,0,1,4-4.23A13.32,13.32,0,0,1,575,41a14.83,14.83,0,0,1,5.86,1.19,14.11,14.11,0,0,1,4.85,3.49A17,17,0,0,1,589,51.26a21.24,21.24,0,0,1,1.22,7.43v1.22A22.17,22.17,0,0,1,589,67.4,16.91,16.91,0,0,1,585.79,73,13.25,13.25,0,0,1,581,76.41a16.56,16.56,0,0,1-10.13.66,11,11,0,0,1-3.09-1.35,9.43,9.43,0,0,1-2.22-2,14.28,14.28,0,0,1-1.36-2h-.43V90.18Zm18-40a8.16,8.16,0,0,0-6.12,2.39,8.72,8.72,0,0,0-2.34,6.33v.82A8.72,8.72,0,0,0,566.08,66a8.2,8.2,0,0,0,6.12,2.39,8.31,8.31,0,0,0,6.12-2.33,8.69,8.69,0,0,0,2.33-6.39v-.82a8.69,8.69,0,0,0-2.33-6.39A8.31,8.31,0,0,0,572.2,50.17Z"/><path class="cls-2" d="M615.46,77.57a19.5,19.5,0,0,1-7.1-1.26,15.75,15.75,0,0,1-5.56-3.64,16.46,16.46,0,0,1-3.64-5.8,21.87,21.87,0,0,1-1.29-7.71v-.4a18.91,18.91,0,0,1,1.36-7.25A16.61,16.61,0,0,1,603,45.92a17.2,17.2,0,0,1,5.55-3.6,18,18,0,0,1,6.8-1.29A17.37,17.37,0,0,1,623,42.61a16.6,16.6,0,0,1,5.31,4,15.59,15.59,0,0,1,3.08,5.32,17.56,17.56,0,0,1,1,5.62v5H607.73a6,6,0,0,0,.62,2,6.18,6.18,0,0,0,1.63,2A8.07,8.07,0,0,0,612.41,68a8.77,8.77,0,0,0,2.92.48,8.4,8.4,0,0,0,4.6-1,6.18,6.18,0,0,0,2.27-2.47l.23-.48,8.2,4.55-.2.42a15,15,0,0,1-1.76,2.78,12.63,12.63,0,0,1-2.93,2.65,16.22,16.22,0,0,1-4.33,2A20.85,20.85,0,0,1,615.46,77.57Zm7.11-23.31a5.58,5.58,0,0,0-2.21-3,8.48,8.48,0,0,0-5.1-1.47,7.61,7.61,0,0,0-5,1.55A7.4,7.4,0,0,0,608,54.26Z"/><path class="cls-2" d="M665.15,76.62V57a8.13,8.13,0,0,0-1.62-5.34,5.6,5.6,0,0,0-4.6-1.89,6.07,6.07,0,0,0-5.26,2.34,10.87,10.87,0,0,0-1.76,6.52v18h-9.55V42h9.55v5h.39a9.44,9.44,0,0,1,3.8-4.34A12,12,0,0,1,662.39,41a13.74,13.74,0,0,1,4.75.81,10.74,10.74,0,0,1,4,2.53,11.8,11.8,0,0,1,2.66,4.31,18.26,18.26,0,0,1,.94,6.14v21.8Z"/><polygon class="cls-2" points="704.03 76.62 701.84 40.07 701.84 34.03 701.21 34.03 701.21 40.04 699.01 76.62 682.46 76.62 680.79 28.15 689.94 28.15 691.03 64.71 691.03 70.33 691.66 70.33 691.66 64.72 693.86 28.15 709.18 28.15 711.38 64.69 711.38 70.33 712.01 70.33 712.01 64.72 713.11 28.15 722.25 28.15 720.59 76.62 704.03 76.62"/><path class="cls-2" d="M745.06,77.57a19.46,19.46,0,0,1-7.1-1.26,15.79,15.79,0,0,1-5.57-3.64,16.44,16.44,0,0,1-3.63-5.8,21.64,21.64,0,0,1-1.29-7.71v-.4a18.91,18.91,0,0,1,1.36-7.25,16.44,16.44,0,0,1,3.74-5.59,17.31,17.31,0,0,1,5.55-3.6,18.12,18.12,0,0,1,6.8-1.29,17.34,17.34,0,0,1,7.68,1.58,16.64,16.64,0,0,1,5.32,4A15.76,15.76,0,0,1,761,51.92a17.82,17.82,0,0,1,1,5.62v5H737.33a6,6,0,0,0,.61,2,6.34,6.34,0,0,0,1.64,2A8,8,0,0,0,742,68a8.85,8.85,0,0,0,2.92.48,8.41,8.41,0,0,0,4.61-1,6.25,6.25,0,0,0,2.27-2.47l.23-.48L760.22,69l-.2.42a15.4,15.4,0,0,1-1.75,2.78,12.63,12.63,0,0,1-2.93,2.65,16.15,16.15,0,0,1-4.34,2A20.73,20.73,0,0,1,745.06,77.57Zm7.11-23.31a5.55,5.55,0,0,0-2.22-3,8.45,8.45,0,0,0-5.09-1.47,7.66,7.66,0,0,0-5,1.55,7.46,7.46,0,0,0-2.26,2.95Z"/><path class="cls-2" d="M784.73,77.57a14.83,14.83,0,0,1-5.93-1.2,14.07,14.07,0,0,1-4.88-3.51,17.14,17.14,0,0,1-3.32-5.59,21.24,21.24,0,0,1-1.22-7.43V58.76a21.73,21.73,0,0,1,1.18-7.36,17.27,17.27,0,0,1,3.22-5.59A13.77,13.77,0,0,1,784.33,41a12.5,12.5,0,0,1,6,1.28,9.05,9.05,0,0,1,3.55,3.74h.42V42h9.54V66c0,1.35.67,1.53,1.33,1.53H807v9.14h-6.33a5.83,5.83,0,0,1-4.11-1.49,5,5,0,0,1-1.59-3.4h-.42a9.09,9.09,0,0,1-3.88,4.45A12.32,12.32,0,0,1,784.73,77.57Zm1.9-27.4a7.14,7.14,0,0,0-5.6,2.31,9.25,9.25,0,0,0-2.1,6.41v.82a9.25,9.25,0,0,0,2.1,6.41,7.94,7.94,0,0,0,11.2,0,9.26,9.26,0,0,0,2.11-6.41v-.82a9.26,9.26,0,0,0-2.11-6.41A7.14,7.14,0,0,0,786.63,50.17Z"/><path class="cls-2" d="M829.9,76.62A5.53,5.53,0,0,1,825.78,75a5.66,5.66,0,0,1-1.6-4.14V51.12h-10V42h10V28.15h9.54V42h12.14v9.14H833.72V66c0,1.35.67,1.53,1.33,1.53h9.59v9.14Z"/><path class="cls-2" d="M881.28,76.62V57a8.12,8.12,0,0,0-1.61-5.34,5.63,5.63,0,0,0-4.61-1.89,6.07,6.07,0,0,0-5.26,2.34A10.87,10.87,0,0,0,868,58.62v18h-9.55V28.15H868V47.41h.39a10.67,10.67,0,0,1,3.85-4.63A11.47,11.47,0,0,1,878.73,41a13.32,13.32,0,0,1,4.79.85,10.7,10.7,0,0,1,3.84,2.56,11.63,11.63,0,0,1,2.55,4.35,18.82,18.82,0,0,1,.91,6.17V76.62Z"/><path class="cls-2" d="M917.86,77.57a19.42,19.42,0,0,1-7.1-1.26,15.79,15.79,0,0,1-5.57-3.64,16.46,16.46,0,0,1-3.64-5.8,21.87,21.87,0,0,1-1.28-7.71v-.4a18.73,18.73,0,0,1,1.36-7.25,16.44,16.44,0,0,1,3.74-5.59,17.2,17.2,0,0,1,5.55-3.6,18.12,18.12,0,0,1,6.8-1.29,17.34,17.34,0,0,1,7.68,1.58,16.49,16.49,0,0,1,5.31,4,15.59,15.59,0,0,1,3.08,5.32,17.56,17.56,0,0,1,1,5.62v5H910.12a6,6,0,0,0,.62,2,6.18,6.18,0,0,0,1.63,2A8.07,8.07,0,0,0,914.8,68a8.81,8.81,0,0,0,2.92.48,8.44,8.44,0,0,0,4.61-1,6.15,6.15,0,0,0,2.26-2.47l.23-.48L933,69l-.2.42a15.4,15.4,0,0,1-1.75,2.78,12.84,12.84,0,0,1-2.93,2.65,16.44,16.44,0,0,1-4.34,2A20.73,20.73,0,0,1,917.86,77.57ZM925,54.26a5.58,5.58,0,0,0-2.21-3,8.48,8.48,0,0,0-5.1-1.47,7.63,7.63,0,0,0-5,1.55,7.28,7.28,0,0,0-2.26,2.95Z"/><path class="cls-2" d="M942.31,76.62V67.48h6.92V51.12h-6.1V42h15.24v4.88h.37A8.63,8.63,0,0,1,962,42.64,10.08,10.08,0,0,1,967.77,41a11.22,11.22,0,0,1,8.43,3.31c2.12,2.19,3.19,5.53,3.19,9.94v1.95l-9.82.9V55.64a6.13,6.13,0,0,0-1.3-4.12A4.81,4.81,0,0,0,964.38,50a5,5,0,0,0-4.09,1.79,8.14,8.14,0,0,0-1.52,5.31V67.48h7.74v9.14Z"/><path class="cls-2" d="M1057.09,76.62l-2.3-10.17h-15.35l-2.3,10.17h-10.39l11.56-48.47h17.61l11.56,48.47Zm-4.5-19.72-5.26-23.28h-.43l-5.33,23.28Z"/><path class="cls-2" d="M1073.94,76.62V28.15H1093a16.32,16.32,0,0,1,6.57,1.23,14,14,0,0,1,4.68,3.23,13.69,13.69,0,0,1,2.81,4.58,15,15,0,0,1,1,5.22V44a15.73,15.73,0,0,1-1,5.36,14.19,14.19,0,0,1-2.81,4.71,13.82,13.82,0,0,1-4.68,3.34,15.91,15.91,0,0,1-6.57,1.26h-9.13V76.62Zm18.2-27.45a6.14,6.14,0,0,0,4.37-1.49,5,5,0,0,0,1.58-3.84V43a5,5,0,0,0-1.58-3.84,6.14,6.14,0,0,0-4.37-1.49h-8.24V49.17Z"/><polygon class="cls-2" points="1117.14 76.62 1117.14 67.07 1128.54 67.07 1128.54 37.69 1117.14 37.69 1117.14 28.15 1149.88 28.15 1149.88 37.69 1138.49 37.69 1138.49 67.07 1149.88 67.07 1149.88 76.62 1117.14 76.62"/><path class="cls-2" d="M1177.52,77.57a20.32,20.32,0,0,1-6.88-1,16.08,16.08,0,0,1-4.76-2.63,11.73,11.73,0,0,1-2.94-3.54,13.7,13.7,0,0,1-1.37-3.77l-.08-.43,8.79-2.88.13.52a7.33,7.33,0,0,0,2.13,3.55,7.13,7.13,0,0,0,5,1.5c2,0,3.36-.3,4.06-.87a2.31,2.31,0,0,0,1-1.75,2.2,2.2,0,0,0-.25-1,2.55,2.55,0,0,0-.94-.9,7.05,7.05,0,0,0-2.06-.78,26,26,0,0,0-3.42-.54,18,18,0,0,1-9.31-3,9,9,0,0,1-3.56-7.69v-.41a9.23,9.23,0,0,1,1.16-4.66,10.92,10.92,0,0,1,3-3.37,13.37,13.37,0,0,1,4.23-2.08,17.39,17.39,0,0,1,4.88-.7,18,18,0,0,1,5.69.81A13.71,13.71,0,0,1,1186.1,44a12.35,12.35,0,0,1,2.76,2.9,15.57,15.57,0,0,1,1.61,3l.17.46-8.68,3.5-.16-.51a5.14,5.14,0,0,0-1.92-2.63,6.16,6.16,0,0,0-3.58-1,5.09,5.09,0,0,0-3,.69,1.82,1.82,0,0,0-.88,1.53,1.92,1.92,0,0,0,1.39,1.87,24,24,0,0,0,6,1.15,16.82,16.82,0,0,1,8.67,3.19,9,9,0,0,1,3.45,7.48v.41a10.32,10.32,0,0,1-3.85,8.39C1185.63,76.52,1182.05,77.57,1177.52,77.57Z"/></g></g></svg>