<svg xmlns="http://www.w3.org/2000/svg" viewBox="0 0 123 123"><defs><style>.cls-1{fill:#012749;stroke:#9ac7ee;stroke-width:3px;}.cls-1,.cls-2{stroke-miterlimit:10;}.cls-2{fill:none;stroke:#fff;stroke-width:0.93px;}</style></defs><g id="Layer_2" data-name="Layer 2"><g id="Layer_1-2" data-name="Layer 1"><circle class="cls-1" cx="61.5" cy="61.5" r="60"/><path class="cls-2" d="M61.5,105.5v-88"/><path class="cls-2" d="M38.07,98.74C34.16,96.28,35,86.91,40.3,74.16A140.64,140.64,0,0,1,63.74,36.91C72.94,26.62,81,21.8,84.93,24.26"/><path class="cls-2" d="M20.3,77c-2.62-7,2.8-16.42,14.24-24.7A87.67,87.67,0,0,1,75.73,36.81c14.06-1.29,24.34,2.23,27,9.23"/><path class="cls-2" d="M20.3,46c4.06-10.82,25.8-12.67,48.55-4.13S106.76,66.14,102.7,77"/><path class="cls-2" d="M38.07,24.26c6-3.81,21.43,9.79,34.38,30.35S91,94.94,84.93,98.74"/><path class="cls-2" d="M86,98.06a45,45,0,0,1-49,0"/><path class="cls-2" d="M103.68,74c-5,16.68-22.3,28.33-42.18,28.33S24.27,90.7,19.32,74"/><path class="cls-2" d="M103.68,49c4.53,15.26-2.37,31.36-17.32,40.36a49.15,49.15,0,0,1-49.72,0c-14.95-9-21.85-25.1-17.32-40.36"/><path class="cls-2" d="M86,24.94C99.53,34,104.91,49.54,99.37,63.57S78.62,87,61.5,87,29.16,77.6,23.63,63.57,23.47,34,37,24.94"/><ellipse class="cls-2" cx="61.5" cy="47.09" rx="33.25" ry="28.8"/><ellipse class="cls-2" cx="61.5" cy="42.99" rx="23.79" ry="20.6"/><ellipse class="cls-2" cx="61.5" cy="40.39" rx="12.4" ry="10.74"/><circle class="cls-2" cx="61.5" cy="61.5" r="44"/></g></g></svg>